<svg xmlns="http://www.w3.org/2000/svg" width="1920" height="1280" viewBox="0 0 1920 1280">
  <defs>
    <linearGradient id="g" x1="0" y1="0" x2="1" y2="1">
      <stop offset="0" stop-color="#2a2622"/>
      <stop offset="1" stop-color="#7c5b3a"/>
    </linearGradient>
    <radialGradient id="v" cx="50%" cy="42%" r="75%">
      <stop offset="55%" stop-color="#000" stop-opacity="0"/>
      <stop offset="100%" stop-color="#000" stop-opacity="0.45"/>
    </radialGradient>
  </defs>
  <rect width="1920" height="1280" fill="url(#g)"/>
  
  <g opacity="0.18" transform="translate(960.0,537.6)">
    <circle r="153.6" fill="none" stroke="#f7f3ec" stroke-width="2"/>
    <line x1="167.6" y1="0.0" x2="187.6" y2="0.0" stroke="#f7f3ec" stroke-width="2" stroke-linecap="round"/><line x1="145.1" y1="83.8" x2="162.5" y2="93.8" stroke="#f7f3ec" stroke-width="2" stroke-linecap="round"/><line x1="83.8" y1="145.1" x2="93.8" y2="162.5" stroke="#f7f3ec" stroke-width="2" stroke-linecap="round"/><line x1="0.0" y1="167.6" x2="0.0" y2="187.6" stroke="#f7f3ec" stroke-width="2" stroke-linecap="round"/><line x1="-83.8" y1="145.1" x2="-93.8" y2="162.5" stroke="#f7f3ec" stroke-width="2" stroke-linecap="round"/><line x1="-145.1" y1="83.8" x2="-162.5" y2="93.8" stroke="#f7f3ec" stroke-width="2" stroke-linecap="round"/><line x1="-167.6" y1="0.0" x2="-187.6" y2="0.0" stroke="#f7f3ec" stroke-width="2" stroke-linecap="round"/><line x1="-145.1" y1="-83.8" x2="-162.5" y2="-93.8" stroke="#f7f3ec" stroke-width="2" stroke-linecap="round"/><line x1="-83.8" y1="-145.1" x2="-93.8" y2="-162.5" stroke="#f7f3ec" stroke-width="2" stroke-linecap="round"/><line x1="-0.0" y1="-167.6" x2="-0.0" y2="-187.6" stroke="#f7f3ec" stroke-width="2" stroke-linecap="round"/><line x1="83.8" y1="-145.1" x2="93.8" y2="-162.5" stroke="#f7f3ec" stroke-width="2" stroke-linecap="round"/><line x1="145.1" y1="-83.8" x2="162.5" y2="-93.8" stroke="#f7f3ec" stroke-width="2" stroke-linecap="round"/>
  </g>
  <rect width="1920" height="1280" fill="url(#v)"/>
  
</svg>