<svg xmlns="http://www.w3.org/2000/svg" width="900" height="1200" viewBox="0 0 900 1200">
  <defs>
    <linearGradient id="g" x1="0" y1="0" x2="1" y2="1">
      <stop offset="0" stop-color="#332a24"/>
      <stop offset="1" stop-color="#a9863f"/>
    </linearGradient>
    <radialGradient id="v" cx="50%" cy="42%" r="75%">
      <stop offset="55%" stop-color="#000" stop-opacity="0"/>
      <stop offset="100%" stop-color="#000" stop-opacity="0.45"/>
    </radialGradient>
  </defs>
  <rect width="900" height="1200" fill="url(#g)"/>
  
  <g opacity="0.18" transform="translate(450.0,504.0)">
    <circle r="108.0" fill="none" stroke="#f7f3ec" stroke-width="2"/>
    <line x1="122.0" y1="0.0" x2="142.0" y2="0.0" stroke="#f7f3ec" stroke-width="2" stroke-linecap="round"/><line x1="105.7" y1="61.0" x2="123.0" y2="71.0" stroke="#f7f3ec" stroke-width="2" stroke-linecap="round"/><line x1="61.0" y1="105.7" x2="71.0" y2="123.0" stroke="#f7f3ec" stroke-width="2" stroke-linecap="round"/><line x1="0.0" y1="122.0" x2="0.0" y2="142.0" stroke="#f7f3ec" stroke-width="2" stroke-linecap="round"/><line x1="-61.0" y1="105.7" x2="-71.0" y2="123.0" stroke="#f7f3ec" stroke-width="2" stroke-linecap="round"/><line x1="-105.7" y1="61.0" x2="-123.0" y2="71.0" stroke="#f7f3ec" stroke-width="2" stroke-linecap="round"/><line x1="-122.0" y1="0.0" x2="-142.0" y2="0.0" stroke="#f7f3ec" stroke-width="2" stroke-linecap="round"/><line x1="-105.7" y1="-61.0" x2="-123.0" y2="-71.0" stroke="#f7f3ec" stroke-width="2" stroke-linecap="round"/><line x1="-61.0" y1="-105.7" x2="-71.0" y2="-123.0" stroke="#f7f3ec" stroke-width="2" stroke-linecap="round"/><line x1="-0.0" y1="-122.0" x2="-0.0" y2="-142.0" stroke="#f7f3ec" stroke-width="2" stroke-linecap="round"/><line x1="61.0" y1="-105.7" x2="71.0" y2="-123.0" stroke="#f7f3ec" stroke-width="2" stroke-linecap="round"/><line x1="105.7" y1="-61.0" x2="123.0" y2="-71.0" stroke="#f7f3ec" stroke-width="2" stroke-linecap="round"/>
  </g>
  <rect width="900" height="1200" fill="url(#v)"/>
  <text x="450.0" y="744.0" text-anchor="middle" font-family="Georgia, serif" font-size="69" fill="#f7f3ec" opacity="0.92">First Look</text>
</svg>